<!-- Treasure Trove Finds | Key and tag. Mark, built to hold at 32 pixels. -->
<svg xmlns="http://www.w3.org/2000/svg" viewBox="0 0 64 64" role="img" aria-label="Treasure Trove Finds, key and tag mark"><title>Treasure Trove Finds, key and tag mark</title><path d="M24.4,14.6C23.4,19.6 13.6,39.7 15.6,46.6" fill="none" stroke="#23201C" stroke-width="2.2" stroke-linecap="round" stroke-linejoin="round"/><path d="M7.8,52.7a7.8,7.8 0 1,0 15.5,0a7.8,7.8 0 1,0 -15.5,0ZM11.5,52.7a4.1,4.1 0 1,0 8.2,0a4.1,4.1 0 1,0 -8.2,0Z" fill="#23201C" fill-rule="evenodd"/><path d="M26.7,48.2 C27,47.7 28.1,46.9 28.4,46.6 C28.7,46.3 29.5,45.4 29.8,45.2 C30,45 30.5,45.1 30.7,44.9 C30.9,44.7 31.4,43.4 31.7,43.2 C31.9,42.9 32.9,43 33.1,42.8 C33.4,42.5 33.9,41 34.1,40.7 C34.4,40.4 35.2,40 35.5,40 C35.8,40 36.9,40.9 37.3,40.8 C37.8,40.6 39.6,39 40,38.7 C40.5,38.5 41,38.1 41.5,38 C42,37.8 44.6,37.3 45.2,37.2 C45.8,37 46.9,36.6 47.4,36.3 C47.9,36 49.6,34.8 50,34.4 C50.4,34.1 51.2,33.4 51.4,33.1 C51.7,32.8 52.2,31.7 52.5,31.3 C52.8,31 53.9,30.1 54.2,29.9 C54.5,29.6 55.4,28.9 55.4,28.9 C55.4,28.9 54.7,31.1 54.5,31.5 C54.3,32 53.7,33.1 53.5,33.5 C53.3,33.9 52.8,35.1 52.5,35.4 C52.2,35.8 50.8,36.7 50.5,36.9 C50.2,37 49.2,37.1 49.2,37.1 C49.2,37.1 50.5,37.3 50.8,37.3 C51.2,37.3 52.2,37.1 52.5,36.9 C52.8,36.7 53.4,36 53.7,35.6 C54,35.3 55.2,33.8 55.5,33.5 C55.8,33.2 56.3,33.1 56.7,32.9 C57.1,32.7 59.2,31.9 59.7,31.6 C60.2,31.2 61.2,30 61.6,29.7 C61.9,29.5 63,29.2 63,29.2 C63,29.2 62.6,30.7 62.3,31.1 C62.1,31.4 60.9,32.4 60.6,32.7 C60.3,32.9 59.8,33.4 59.5,33.6 C59.1,33.8 57.7,34.3 57.2,34.6 C56.7,34.9 55,36.4 54.6,36.8 C54.2,37.1 53.7,37.7 53.3,38 C52.8,38.2 51,39.1 50.3,39.5 C49.5,39.8 47,40.9 46.4,41.3 C45.8,41.6 44.7,42.6 44.3,42.9 C43.9,43.2 43,43.7 42.6,43.9 C42.2,44.1 40.5,44.8 40,45.1 C39.4,45.5 37.8,46.9 37.2,47.3 C36.6,47.7 34.9,48.5 34.5,48.7 C34,49 33.5,49.8 33.2,50 C32.9,50.2 32.1,50.3 31.6,50.5 C31.1,50.8 28.5,52.4 28.5,52.4 C28.5,52.4 29.3,49.8 29.2,49.7 C29,49.7 27.5,51.9 27.2,52.1 C26.8,52.2 26,51.1 26,51.1 C26,51.1 26.5,48.7 26.7,48.2Z M19.2,48.8 L27.3,46.5 L28.8,51.8 L20.8,54.1Z" fill="#23201C"/><path d="M25,3.4H46.4A2.6,2.6 0 0 1 49,6V18.4A2.6,2.6 0 0 1 46.4,21H25L19.2,14.4a2.3,2.3 0 0 1 0,-4.2Z M22.2,12.2a2.2,2.2 0 1,0 4.4,0a2.2,2.2 0 1,0 -4.4,0Z M29.7,9.2h12.2a1.1,1.1 0 0 1 1.1,1.1v0a1.1,1.1 0 0 1 -1.1,1.1h-12.2a1.1,1.1 0 0 1 -1.1,-1.1v-0a1.1,1.1 0 0 1 1.1,-1.1ZM29.7,14.2h7.4a1.1,1.1 0 0 1 1.1,1.1v0a1.1,1.1 0 0 1 -1.1,1.1h-7.4a1.1,1.1 0 0 1 -1.1,-1.1v-0a1.1,1.1 0 0 1 1.1,-1.1Z" fill="#23201C" fill-rule="evenodd"/></svg>
